<?xml version="1.0" encoding="utf-8" ?>
<svg baseProfile="full" height="378" version="1.1" viewBox="0 0 442 378" width="442" xmlns="http://www.w3.org/2000/svg" xmlns:ev="http://www.w3.org/2001/xml-events" xmlns:xlink="http://www.w3.org/1999/xlink"><defs /><path d="M806 273H692C724 300 742 339 742 380C742 463 676 529 593 529C511 529 444 463 444 380C444 298 511 231 593 231H806ZM487 380C487 439 534 486 593 486C652 486 699 439 699 380C699 321 652 274 593 274C534 274 487 321 487 380Z" fill="black" transform="translate(-404,569) scale(1,-1)" /></svg>