<?xml version="1.0" encoding="utf-8" ?>
<svg baseProfile="full" height="1228" version="1.1" viewBox="0 0 1228 1228" width="1228" xmlns="http://www.w3.org/2000/svg" xmlns:ev="http://www.w3.org/2001/xml-events" xmlns:xlink="http://www.w3.org/1999/xlink"><defs /><path d="M625 -194C548 -194 473 -179 401 -149C334 -120 273 -79 219 -25C166 28 125 89 96 156C66 228 51 303 51 380C51 458 66 533 96 604C125 671 166 733 220 786C273 839 334 880 401 909C473 939 548 954 625 954C703 954 778 939 849 909C916 880 978 839 1031 786C1084 733 1125 671 1154 604C1184 533 1199 458 1199 380C1199 303 1184 228 1154 156C1125 89 1084 28 1031 -26C978 -79 916 -120 849 -149C778 -179 703 -194 625 -194ZM625 869C559 869 495 856 435 830C376 806 324 770 280 725C235 681 199 629 175 570C149 510 136 446 136 380C136 314 149 250 175 190C199 131 235 79 280 35C324 -10 376 -46 435 -70C495 -96 559 -109 625 -109C691 -109 755 -96 815 -70C874 -46 926 -10 971 35C1015 79 1051 131 1075 190C1101 250 1114 314 1114 380C1114 446 1101 510 1075 570C1051 629 1015 681 970 726C926 770 874 806 815 830C755 856 691 869 625 869ZM625 40C534 40 449 75 385 140C320 204 285 289 285 380C285 471 320 556 385 620C449 685 534 720 625 720C716 720 801 685 865 620C930 556 965 471 965 380C965 289 930 204 865 140C801 75 716 40 625 40ZM625 678C545 678 471 646 415 590C359 534 328 460 328 380C328 300 359 226 415 170C471 114 545 83 625 83C705 83 779 114 835 170C891 226 923 300 923 380C923 460 891 534 835 590C779 646 705 678 625 678Z" fill="black" transform="translate(-11,994) scale(1,-1)" /></svg>