<?xml version="1.0" encoding="utf-8" ?>
<svg baseProfile="full" height="760" version="1.1" viewBox="0 0 760 760" width="760" xmlns="http://www.w3.org/2000/svg" xmlns:ev="http://www.w3.org/2001/xml-events" xmlns:xlink="http://www.w3.org/1999/xlink"><defs /><path d="M865 620C801 685 716 720 625 720C534 720 449 685 385 620C320 556 285 471 285 380C285 289 320 204 385 140C449 75 534 40 625 40C716 40 801 75 865 140C930 204 965 289 965 380C965 471 930 556 865 620ZM835 170C779 114 705 83 625 83C545 83 471 114 415 170C359 226 328 300 328 380C328 460 359 534 415 590C471 646 545 678 625 678C705 678 779 646 835 590C891 534 923 460 923 380C923 300 891 226 835 170ZM668 423H838V338H668V168H583V338H413V423H583V593H668Z" fill="black" transform="translate(-245,760) scale(1,-1)" /></svg>