<?xml version="1.0" encoding="utf-8" ?>
<svg baseProfile="full" height="940" version="1.1" viewBox="0 0 980 940" width="980" xmlns="http://www.w3.org/2000/svg" xmlns:ev="http://www.w3.org/2001/xml-events" xmlns:xlink="http://www.w3.org/1999/xlink"><defs /><path d="M976 30V454L1025 419L1075 488L625 810L175 488L225 419L274 454V30H200V-50H1050V30ZM359 30V515L625 708L891 515V30H774V391C774 473 709 540 625 540C541 540 476 473 476 391V285H561V396C561 431 589 460 625 460C661 460 689 431 689 396V30Z" fill="black" transform="translate(-135,850) scale(1,-1)" /></svg>