<?xml version="1.0" encoding="utf-8" ?>
<svg baseProfile="full" height="802" version="1.1" viewBox="0 0 802 802" width="802" xmlns="http://www.w3.org/2000/svg" xmlns:ev="http://www.w3.org/2001/xml-events" xmlns:xlink="http://www.w3.org/1999/xlink"><defs /><path d="M880 635C813 704 721 741 625 741C529 741 438 704 370 635C301 568 264 476 264 380C264 284 301 193 370 125C438 56 529 19 625 19C721 19 813 56 880 125C949 193 986 284 986 380C986 476 949 568 880 635ZM625 656C699 656 769 628 823 573H428C481 628 551 656 625 656ZM899 416H351C355 444 363 470 373 494H876C888 469 895 444 899 416ZM583 338V108C525 116 471 143 430 185C388 226 361 280 353 338ZM820 185C779 143 725 116 668 108V338H898C889 280 863 226 820 185Z" fill="black" transform="translate(-224,781) scale(1,-1)" /></svg>