<?xml version="1.0" encoding="utf-8" ?>
<svg baseProfile="full" height="930" version="1.1" viewBox="0 0 1185 930" width="1185" xmlns="http://www.w3.org/2000/svg" xmlns:ev="http://www.w3.org/2001/xml-events" xmlns:xlink="http://www.w3.org/1999/xlink"><defs /><path d="M876 338H1178V805H1093V423H876C870 461 855 498 833 529L955 650L894 710L773 589C741 610 705 625 666 631V805H581V631C543 625 508 609 476 588L354 710L294 650L416 528C395 496 380 461 374 423H73V-45H158V338H374C380 299 395 264 416 233L294 110L354 50L476 173C508 151 543 135 581 129V-45H666V129C705 135 741 150 773 171L894 50L954 110L833 231C854 263 870 299 876 338ZM625 210C531 210 455 286 455 380C455 474 531 550 625 550C719 550 795 474 795 380C795 286 719 210 625 210Z" fill="black" transform="translate(-33,845) scale(1,-1)" /></svg>