<svg xmlns="http://www.w3.org/2000/svg" viewBox="0 0 100 100">
<g fill="black" stroke="none">
<path d="M 14.36 97.78 L 14.36 95.56 L 14.36 93.33 L 14.36 91.11 L 14.36 88.89 L 14.36 86.67 L 14.36 84.44 L 14.36 82.22 L 14.36 80.00 L 14.36 77.78 L 14.36 75.56 L 14.36 73.33 L 14.36 71.11 L 14.36 68.89 L 14.36 66.67 L 14.36 64.44 L 14.36 62.22 L 14.36 60.00 L 14.36 57.78 L 14.36 55.56 L 14.36 53.33 L 14.36 51.11 L 14.36 48.89 L 14.36 46.67 L 14.36 44.44 L 14.36 42.22 L 14.36 40.00 L 14.36 37.78 L 14.36 35.56 L 14.36 33.33 L 14.36 31.11 L 14.36 28.89 L 14.36 26.67 L 14.36 24.44 L 14.36 22.22 L 14.36 20.00 L 14.36 17.78 L 14.36 15.56 L 14.36 13.33 L 14.36 11.11 L 14.36 8.89 L 14.36 6.67 L 14.36 4.44 L 14.36 2.22 L 13.83 1.11 L 12.77 1.11 L 11.70 1.11 L 10.64 1.11 L 9.57 1.11 L 8.51 1.11 L 7.45 1.11 L 6.38 1.11 L 5.32 1.11 L 4.26 1.11 L 3.19 1.11 L 2.13 1.11 L 1.06 1.11 L 0.00 1.11 Z"/>
<path d="M 81.38 97.78 L 81.38 95.56 L 81.38 93.33 L 81.38 91.11 L 81.38 88.89 L 81.38 86.67 L 81.38 84.44 L 81.38 82.22 L 81.38 80.00 L 81.38 77.78 L 81.38 75.56 L 81.38 73.33 L 81.38 71.11 L 81.38 68.89 L 81.38 66.67 L 81.38 64.44 L 81.38 62.22 L 81.38 60.00 L 81.38 57.78 L 81.38 55.56 L 81.38 53.33 L 81.38 51.11 L 81.38 48.89 L 81.38 46.67 L 81.38 44.44 L 81.38 42.22 L 81.38 40.00 L 81.38 37.78 L 81.38 35.56 L 81.38 33.33 L 81.38 31.11 L 81.38 28.89 L 81.38 26.67 L 81.38 24.44 L 81.38 22.22 L 81.38 20.00 L 81.38 17.78 L 81.38 15.56 L 81.38 13.33 L 81.38 11.11 L 81.38 8.89 L 81.38 6.67 L 81.38 4.44 L 81.38 2.22 L 80.85 1.11 L 79.79 1.11 L 78.72 1.11 L 77.66 1.11 L 76.60 1.11 L 75.53 1.11 L 74.47 1.11 L 73.40 1.11 L 72.34 1.11 L 71.28 1.11 L 70.21 1.11 L 69.15 1.11 L 68.09 1.11 L 67.02 1.11 L 65.96 1.11 L 64.89 1.11 L 63.83 1.11 L 62.77 1.11 L 61.70 1.11 L 60.64 1.11 L 59.57 1.11 L 58.51 1.11 L 57.45 1.11 L 56.38 1.11 L 55.32 1.11 L 54.26 1.11 L 53.19 1.11 L 52.13 1.11 L 51.06 1.11 L 50.00 1.11 L 48.94 1.11 L 47.87 1.11 L 46.81 1.11 L 45.74 1.11 L 44.68 1.11 L 43.62 1.11 L 42.55 1.11 L 41.49 1.11 L 40.43 1.11 L 39.36 1.11 L 38.30 1.11 L 37.23 1.11 L 36.17 1.11 L 35.11 1.11 L 34.04 1.11 L 32.98 1.11 L 31.91 1.11 L 30.85 1.11 L 29.79 1.11 L 28.72 1.11 L 27.66 1.11 L 26.60 1.11 L 25.53 1.11 L 24.47 1.11 L 23.40 1.11 L 22.34 1.11 L 21.28 1.11 L 20.21 1.11 L 19.15 1.11 L 18.09 1.11 L 17.02 1.11 L 16.49 2.22 L 16.49 4.44 L 16.49 6.67 L 16.49 8.89 L 16.49 11.11 L 16.49 13.33 L 16.49 15.56 L 16.49 17.78 L 16.49 20.00 L 16.49 22.22 L 16.49 24.44 L 16.49 26.67 L 16.49 28.89 L 16.49 31.11 L 16.49 33.33 L 16.49 35.56 L 16.49 37.78 L 16.49 40.00 L 16.49 42.22 L 16.49 44.44 L 16.49 46.67 L 16.49 48.89 L 16.49 51.11 L 16.49 53.33 L 16.49 55.56 L 16.49 57.78 L 16.49 60.00 L 16.49 62.22 L 16.49 64.44 L 16.49 66.67 L 16.49 68.89 L 16.49 71.11 L 16.49 73.33 L 16.49 75.56 L 16.49 77.78 L 16.49 80.00 L 16.49 82.22 L 16.49 84.44 L 16.49 86.67 L 16.49 88.89 L 16.49 91.11 L 16.49 93.33 L 16.49 95.56 L 16.49 97.78 Z"/>
<path d="M 98.94 1.11 L 97.87 1.11 L 96.81 1.11 L 95.74 1.11 L 94.68 1.11 L 93.62 1.11 L 92.55 1.11 L 91.49 1.11 L 90.43 1.11 L 89.36 1.11 L 88.30 1.11 L 87.23 1.11 L 86.17 1.11 L 85.11 1.11 L 84.04 1.11 L 82.98 1.11 L 82.45 2.22 L 82.45 4.44 L 82.45 6.67 L 82.45 8.89 L 82.45 11.11 L 82.45 13.33 L 82.45 15.56 L 82.45 17.78 L 82.45 20.00 L 82.45 22.22 L 82.45 24.44 L 82.45 26.67 L 82.45 28.89 L 82.45 31.11 L 82.45 33.33 L 82.45 35.56 L 82.45 37.78 L 82.45 40.00 L 82.45 42.22 L 82.45 44.44 L 82.45 46.67 L 82.45 48.89 L 82.45 51.11 L 82.45 53.33 L 82.45 55.56 L 82.45 57.78 L 82.45 60.00 L 82.45 62.22 L 82.45 64.44 L 82.45 66.67 L 82.45 68.89 L 82.45 71.11 L 82.45 73.33 L 82.45 75.56 L 82.45 77.78 L 82.45 80.00 L 82.45 82.22 L 82.45 84.44 L 82.45 86.67 L 82.45 88.89 L 82.45 91.11 L 82.45 93.33 L 82.45 95.56 L 82.45 97.78 Z"/>
<path d="M 65.96 81.11 L 64.89 81.11 L 63.83 81.11 L 62.77 81.11 L 61.70 81.11 L 60.64 81.11 L 59.57 81.11 L 58.51 81.11 L 57.45 81.11 L 56.38 81.11 L 55.32 81.11 L 54.26 81.11 L 53.19 81.11 L 52.13 81.11 L 51.06 81.11 L 50.00 81.11 L 48.94 81.11 L 47.87 81.11 L 46.81 81.11 L 45.74 81.11 L 44.68 81.11 L 43.62 81.11 L 42.55 81.11 L 41.49 81.11 L 40.43 81.11 L 39.36 81.11 L 38.30 81.11 L 37.23 81.11 L 36.17 81.11 L 35.11 81.11 L 34.04 81.11 L 32.98 81.11 L 31.91 81.11 L 30.85 81.11 L 30.32 80.00 L 30.32 77.78 L 30.32 75.56 L 30.85 74.44 L 31.38 73.33 L 31.38 71.11 L 31.38 68.89 L 31.38 66.67 L 31.38 64.44 L 31.38 62.22 L 31.38 60.00 L 31.38 57.78 L 31.38 55.56 L 31.38 53.33 L 31.38 51.11 L 31.38 48.89 L 31.38 46.67 L 31.38 44.44 L 31.38 42.22 L 31.38 40.00 L 31.38 37.78 L 31.38 35.56 L 31.38 33.33 L 31.38 31.11 L 30.85 30.00 L 30.32 28.89 L 30.32 26.67 L 30.32 24.44 L 30.32 22.22 L 30.32 20.00 L 30.85 18.89 L 31.91 18.89 L 32.98 18.89 L 34.04 18.89 L 35.11 18.89 L 36.17 18.89 L 37.23 18.89 L 38.30 18.89 L 39.36 18.89 L 40.43 18.89 L 41.49 18.89 L 42.55 18.89 L 43.62 18.89 L 44.68 18.89 L 45.74 18.89 L 46.81 18.89 L 47.87 18.89 L 48.94 18.89 L 50.00 18.89 L 51.06 18.89 L 52.13 18.89 L 53.19 18.89 L 54.26 18.89 L 55.32 18.89 L 56.38 18.89 L 57.45 18.89 L 58.51 18.89 L 59.57 18.89 L 60.64 18.89 L 61.70 18.89 L 62.77 18.89 L 63.83 18.89 L 64.89 18.89 L 65.96 18.89 L 66.49 20.00 L 66.49 22.22 L 66.49 24.44 L 66.49 26.67 L 66.49 28.89 L 66.49 31.11 L 66.49 33.33 L 66.49 35.56 L 66.49 37.78 L 66.49 40.00 L 66.49 42.22 L 66.49 44.44 L 66.49 46.67 L 66.49 48.89 L 66.49 51.11 L 66.49 53.33 L 66.49 55.56 L 66.49 57.78 L 66.49 60.00 L 66.49 62.22 L 66.49 64.44 L 66.49 66.67 L 66.49 68.89 L 66.49 71.11 L 66.49 73.33 L 66.49 75.56 L 66.49 77.78 L 66.49 80.00 L 65.96 81.11 Z"/>
<path d="M 98.94 65.56 L 97.87 65.56 L 96.81 65.56 L 95.74 65.56 L 94.68 65.56 L 93.62 65.56 L 92.55 65.56 L 92.02 66.67 L 91.49 67.78 L 90.43 67.78 L 89.89 66.67 L 89.89 64.44 L 89.89 62.22 L 90.43 61.11 L 90.96 60.00 L 90.96 57.78 L 90.96 55.56 L 90.96 53.33 L 90.43 52.22 L 89.89 51.11 L 90.43 50.00 L 90.96 48.89 L 90.96 46.67 L 90.96 44.44 L 90.43 43.33 L 89.89 42.22 L 89.89 40.00 L 90.43 38.89 L 91.49 38.89 L 92.55 38.89 L 93.62 38.89 L 94.15 37.78 L 94.68 36.67 L 95.74 36.67 L 96.28 37.78 L 96.81 38.89 L 97.87 38.89 L 98.94 38.89 Z"/>
</g></svg>