<svg xmlns="http://www.w3.org/2000/svg" viewBox="0 0 100 100">
<g fill="black" stroke="none">
<path d="M 6.88 97.78 L 6.88 95.56 L 6.88 93.33 L 6.88 91.11 L 6.88 88.89 L 6.88 86.67 L 6.88 84.44 L 6.88 82.22 L 6.88 80.00 L 6.88 77.78 L 6.88 75.56 L 6.88 73.33 L 6.88 71.11 L 6.88 68.89 L 6.88 66.67 L 6.88 64.44 L 6.88 62.22 L 6.88 60.00 L 6.88 57.78 L 6.88 55.56 L 6.88 53.33 L 6.88 51.11 L 6.88 48.89 L 6.88 46.67 L 6.88 44.44 L 6.88 42.22 L 6.88 40.00 L 6.88 37.78 L 6.88 35.56 L 6.88 33.33 L 6.88 31.11 L 6.88 28.89 L 6.88 26.67 L 6.88 24.44 L 6.88 22.22 L 6.88 20.00 L 6.88 17.78 L 6.88 15.56 L 6.88 13.33 L 6.88 11.11 L 6.88 8.89 L 6.88 6.67 L 6.88 4.44 L 6.88 2.22 L 6.88 0.00 Z"/>
<path d="M 9.38 0.00 L 9.38 2.22 L 9.38 4.44 L 10.00 5.56 L 11.25 5.56 L 12.50 5.56 L 13.75 5.56 L 15.00 5.56 L 16.25 5.56 L 17.50 5.56 L 18.75 5.56 L 20.00 5.56 L 21.25 5.56 L 22.50 5.56 L 23.75 5.56 L 25.00 5.56 L 26.25 5.56 L 27.50 5.56 L 28.75 5.56 L 30.00 5.56 L 31.25 5.56 L 32.50 5.56 L 33.75 5.56 L 35.00 5.56 L 36.25 5.56 L 37.50 5.56 L 38.75 5.56 L 40.00 5.56 L 41.25 5.56 L 42.50 5.56 L 43.75 5.56 L 45.00 5.56 L 46.25 5.56 L 47.50 5.56 L 48.75 5.56 L 50.00 5.56 L 51.25 5.56 L 52.50 5.56 L 53.75 5.56 L 55.00 5.56 L 56.25 5.56 L 57.50 5.56 L 58.75 5.56 L 60.00 5.56 L 61.25 5.56 L 62.50 5.56 L 63.75 5.56 L 65.00 5.56 L 66.25 5.56 L 67.50 5.56 L 68.75 5.56 L 70.00 5.56 L 71.25 5.56 L 72.50 5.56 L 73.75 5.56 L 75.00 5.56 L 76.25 5.56 L 77.50 5.56 L 78.75 5.56 L 80.00 5.56 L 81.25 5.56 L 82.50 5.56 L 83.75 5.56 L 85.00 5.56 L 85.62 4.44 L 85.62 2.22 L 85.62 0.00 Z"/>
<path d="M 85.62 97.78 L 85.62 95.56 L 85.62 93.33 L 85.62 91.11 L 85.62 88.89 L 85.62 86.67 L 85.62 84.44 L 85.62 82.22 L 85.62 80.00 L 85.62 77.78 L 85.62 75.56 L 85.62 73.33 L 85.62 71.11 L 85.62 68.89 L 85.62 66.67 L 85.62 64.44 L 85.62 62.22 L 85.62 60.00 L 85.62 57.78 L 85.62 55.56 L 85.62 53.33 L 85.62 51.11 L 85.62 48.89 L 85.62 46.67 L 85.62 44.44 L 85.62 42.22 L 85.62 40.00 L 85.62 37.78 L 85.62 35.56 L 85.62 33.33 L 85.62 31.11 L 85.62 28.89 L 85.62 26.67 L 85.62 24.44 L 85.62 22.22 L 85.62 20.00 L 85.62 17.78 L 85.62 15.56 L 85.62 13.33 L 85.62 11.11 L 85.62 8.89 L 85.00 7.78 L 83.75 7.78 L 82.50 7.78 L 81.25 7.78 L 80.00 7.78 L 78.75 7.78 L 77.50 7.78 L 76.25 7.78 L 75.00 7.78 L 73.75 7.78 L 72.50 7.78 L 71.25 7.78 L 70.00 7.78 L 68.75 7.78 L 67.50 7.78 L 66.25 7.78 L 65.00 7.78 L 63.75 7.78 L 62.50 7.78 L 61.25 7.78 L 60.00 7.78 L 58.75 7.78 L 57.50 7.78 L 56.25 7.78 L 55.00 7.78 L 53.75 7.78 L 52.50 7.78 L 51.25 7.78 L 50.00 7.78 L 48.75 7.78 L 47.50 7.78 L 46.25 7.78 L 45.00 7.78 L 43.75 7.78 L 42.50 7.78 L 41.25 7.78 L 40.00 7.78 L 38.75 7.78 L 37.50 7.78 L 36.25 7.78 L 35.00 7.78 L 33.75 7.78 L 32.50 7.78 L 31.25 7.78 L 30.00 7.78 L 28.75 7.78 L 27.50 7.78 L 26.25 7.78 L 25.00 7.78 L 23.75 7.78 L 22.50 7.78 L 21.25 7.78 L 20.00 7.78 L 18.75 7.78 L 17.50 7.78 L 16.25 7.78 L 15.00 7.78 L 13.75 7.78 L 12.50 7.78 L 11.25 7.78 L 10.00 7.78 L 9.38 8.89 L 9.38 11.11 L 9.38 13.33 L 9.38 15.56 L 9.38 17.78 L 9.38 20.00 L 9.38 22.22 L 9.38 24.44 L 9.38 26.67 L 9.38 28.89 L 9.38 31.11 L 9.38 33.33 L 9.38 35.56 L 9.38 37.78 L 9.38 40.00 L 9.38 42.22 L 9.38 44.44 L 9.38 46.67 L 9.38 48.89 L 9.38 51.11 L 9.38 53.33 L 9.38 55.56 L 9.38 57.78 L 9.38 60.00 L 9.38 62.22 L 9.38 64.44 L 9.38 66.67 L 9.38 68.89 L 9.38 71.11 L 9.38 73.33 L 9.38 75.56 L 9.38 77.78 L 9.38 80.00 L 9.38 82.22 L 9.38 84.44 L 9.38 86.67 L 9.38 88.89 L 9.38 91.11 L 9.38 93.33 L 9.38 95.56 L 9.38 97.78 Z"/>
<path d="M 98.75 7.78 L 97.50 7.78 L 96.25 7.78 L 95.00 7.78 L 93.75 7.78 L 92.50 7.78 L 91.25 7.78 L 90.00 7.78 L 88.75 7.78 L 87.50 7.78 L 86.88 8.89 L 86.88 11.11 L 86.88 13.33 L 86.88 15.56 L 86.88 17.78 L 86.88 20.00 L 86.88 22.22 L 86.88 24.44 L 86.88 26.67 L 86.88 28.89 L 86.88 31.11 L 86.88 33.33 L 86.88 35.56 L 86.88 37.78 L 86.88 40.00 L 86.88 42.22 L 86.88 44.44 L 86.88 46.67 L 86.88 48.89 L 86.88 51.11 L 86.88 53.33 L 86.88 55.56 L 86.88 57.78 L 86.88 60.00 L 86.88 62.22 L 86.88 64.44 L 86.88 66.67 L 86.88 68.89 L 86.88 71.11 L 86.88 73.33 L 86.88 75.56 L 86.88 77.78 L 86.88 80.00 L 86.88 82.22 L 86.88 84.44 L 86.88 86.67 L 86.88 88.89 L 86.88 91.11 L 86.88 93.33 L 86.88 95.56 L 86.88 97.78 Z"/>
<path d="M 66.25 87.78 L 65.00 87.78 L 63.75 87.78 L 62.50 87.78 L 61.25 87.78 L 60.00 87.78 L 58.75 87.78 L 57.50 87.78 L 56.25 87.78 L 55.00 87.78 L 53.75 87.78 L 52.50 87.78 L 51.25 87.78 L 50.00 87.78 L 48.75 87.78 L 47.50 87.78 L 46.25 87.78 L 45.00 87.78 L 43.75 87.78 L 42.50 87.78 L 41.25 87.78 L 40.00 87.78 L 38.75 87.78 L 37.50 87.78 L 36.25 87.78 L 35.00 87.78 L 33.75 87.78 L 32.50 87.78 L 31.25 87.78 L 30.00 87.78 L 28.75 87.78 L 27.50 87.78 L 26.88 86.67 L 26.88 84.44 L 26.88 82.22 L 26.88 80.00 L 26.88 77.78 L 26.88 75.56 L 26.88 73.33 L 26.88 71.11 L 26.88 68.89 L 26.88 66.67 L 26.88 64.44 L 26.88 62.22 L 26.88 60.00 L 26.88 57.78 L 26.88 55.56 L 26.88 53.33 L 26.88 51.11 L 26.88 48.89 L 26.88 46.67 L 26.88 44.44 L 26.88 42.22 L 26.88 40.00 L 26.88 37.78 L 26.88 35.56 L 26.88 33.33 L 26.88 31.11 L 26.88 28.89 L 26.88 26.67 L 27.50 25.56 L 28.75 25.56 L 30.00 25.56 L 31.25 25.56 L 32.50 25.56 L 33.75 25.56 L 35.00 25.56 L 36.25 25.56 L 37.50 25.56 L 38.75 25.56 L 40.00 25.56 L 41.25 25.56 L 42.50 25.56 L 43.75 25.56 L 45.00 25.56 L 46.25 25.56 L 47.50 25.56 L 48.75 25.56 L 50.00 25.56 L 51.25 25.56 L 52.50 25.56 L 53.75 25.56 L 55.00 25.56 L 56.25 25.56 L 57.50 25.56 L 58.75 25.56 L 60.00 25.56 L 61.25 25.56 L 62.50 25.56 L 63.75 25.56 L 65.00 25.56 L 66.25 25.56 L 66.88 26.67 L 66.88 28.89 L 66.88 31.11 L 66.88 33.33 L 66.88 35.56 L 66.88 37.78 L 66.88 40.00 L 66.88 42.22 L 66.88 44.44 L 66.88 46.67 L 66.88 48.89 L 66.88 51.11 L 66.88 53.33 L 66.88 55.56 L 66.88 57.78 L 66.88 60.00 L 66.88 62.22 L 66.88 64.44 L 66.88 66.67 L 66.88 68.89 L 66.88 71.11 L 66.88 73.33 L 66.88 75.56 L 66.88 77.78 L 66.88 80.00 L 66.88 82.22 L 66.88 84.44 L 66.88 86.67 L 66.25 87.78 Z"/>
</g></svg>