<?xml version="1.0" encoding="utf-8" ?>
<svg baseProfile="full" height="800" version="1.1" viewBox="0 0 922 800" width="922" xmlns="http://www.w3.org/2000/svg" xmlns:ev="http://www.w3.org/2001/xml-events" xmlns:xlink="http://www.w3.org/1999/xlink"><defs /><path d="M703 720C624 699 574 664 550 645C521 650 460 655 381 634C269 604 204 530 204 530L344 13C344 13 420 74 525 103C605 124 674 114 674 114L709 124C709 124 765 167 844 188C949 217 1046 200 1046 200L908 719C908 719 814 750 703 720ZM963 264C928 264 881 262 829 247C766 230 729 209 705 193L594 607C619 624 659 647 718 663C791 682 855 669 855 669ZM509 162C456 148 415 127 384 108L275 514C275 514 324 557 396 577C455 593 503 593 533 590L644 177C616 178 573 178 509 162Z" fill="black" transform="translate(-164,773) scale(1,-1)" /></svg>