<svg xmlns="http://www.w3.org/2000/svg" viewBox="0 0 100 100">
<g fill="black" stroke="none">
<path d="M 16.49 0.00 L 16.49 2.22 L 16.49 4.44 L 16.49 6.67 L 17.02 7.78 L 18.09 7.78 L 19.15 7.78 L 20.21 7.78 L 21.28 7.78 L 22.34 7.78 L 23.40 7.78 L 24.47 7.78 L 25.53 7.78 L 26.60 7.78 L 27.66 7.78 L 28.72 7.78 L 29.79 7.78 L 30.85 7.78 L 31.91 7.78 L 32.98 7.78 L 34.04 7.78 L 35.11 7.78 L 36.17 7.78 L 37.23 7.78 L 38.30 7.78 L 39.36 7.78 L 40.43 7.78 L 41.49 7.78 L 42.55 7.78 L 43.62 7.78 L 44.68 7.78 L 45.74 7.78 L 46.81 7.78 L 47.87 7.78 L 48.94 7.78 L 50.00 7.78 L 51.06 7.78 L 52.13 7.78 L 53.19 7.78 L 54.26 7.78 L 55.32 7.78 L 56.38 7.78 L 57.45 7.78 L 58.51 7.78 L 59.57 7.78 L 60.64 7.78 L 61.70 7.78 L 62.77 7.78 L 63.83 7.78 L 64.89 7.78 L 65.96 7.78 L 67.02 7.78 L 68.09 7.78 L 69.15 7.78 L 70.21 7.78 L 71.28 7.78 L 72.34 7.78 L 73.40 7.78 L 74.47 7.78 L 75.53 7.78 L 76.60 7.78 L 77.66 7.78 L 78.72 7.78 L 79.79 7.78 L 80.85 7.78 L 81.38 6.67 L 81.38 4.44 L 81.38 2.22 L 81.38 0.00 Z"/>
<path d="M 82.45 0.00 L 82.45 2.22 L 82.45 4.44 L 82.45 6.67 L 82.98 7.78 L 84.04 7.78 L 85.11 7.78 L 86.17 7.78 L 87.23 7.78 L 88.30 7.78 L 89.36 7.78 L 90.43 7.78 L 91.49 7.78 L 92.55 7.78 L 93.62 7.78 L 94.68 7.78 L 95.74 7.78 L 96.81 7.78 L 97.87 7.78 L 98.94 7.78 Z"/>
<path d="M 14.36 97.78 L 14.36 95.56 L 14.36 93.33 L 14.36 91.11 L 14.36 88.89 L 14.36 86.67 L 14.36 84.44 L 14.36 82.22 L 14.36 80.00 L 14.36 77.78 L 14.36 75.56 L 14.36 73.33 L 14.36 71.11 L 14.36 68.89 L 14.36 66.67 L 14.36 64.44 L 14.36 62.22 L 14.36 60.00 L 14.36 57.78 L 14.36 55.56 L 14.36 53.33 L 14.36 51.11 L 14.36 48.89 L 14.36 46.67 L 14.36 44.44 L 14.36 42.22 L 14.36 40.00 L 14.36 37.78 L 14.36 35.56 L 14.36 33.33 L 14.36 31.11 L 14.36 28.89 L 14.36 26.67 L 14.36 24.44 L 14.36 22.22 L 14.36 20.00 L 14.36 17.78 L 14.36 15.56 L 14.36 13.33 L 14.36 11.11 L 13.83 10.00 L 12.77 10.00 L 11.70 10.00 L 10.64 10.00 L 9.57 10.00 L 8.51 10.00 L 7.45 10.00 L 6.38 10.00 L 5.32 10.00 L 4.26 10.00 L 3.19 10.00 L 2.13 10.00 L 1.06 10.00 L 0.00 10.00 Z"/>
<path d="M 81.38 97.78 L 81.38 95.56 L 81.38 93.33 L 81.38 91.11 L 81.38 88.89 L 81.38 86.67 L 81.38 84.44 L 81.38 82.22 L 81.38 80.00 L 81.38 77.78 L 81.38 75.56 L 81.38 73.33 L 81.38 71.11 L 81.38 68.89 L 81.38 66.67 L 81.38 64.44 L 81.38 62.22 L 81.38 60.00 L 81.38 57.78 L 81.38 55.56 L 81.38 53.33 L 81.38 51.11 L 81.38 48.89 L 81.38 46.67 L 81.38 44.44 L 81.38 42.22 L 81.38 40.00 L 81.38 37.78 L 81.38 35.56 L 81.38 33.33 L 81.38 31.11 L 81.38 28.89 L 81.38 26.67 L 81.38 24.44 L 81.38 22.22 L 81.38 20.00 L 81.38 17.78 L 81.38 15.56 L 81.38 13.33 L 81.38 11.11 L 80.85 10.00 L 79.79 10.00 L 78.72 10.00 L 77.66 10.00 L 76.60 10.00 L 75.53 10.00 L 74.47 10.00 L 73.40 10.00 L 72.34 10.00 L 71.28 10.00 L 70.21 10.00 L 69.15 10.00 L 68.09 10.00 L 67.02 10.00 L 65.96 10.00 L 64.89 10.00 L 63.83 10.00 L 62.77 10.00 L 61.70 10.00 L 60.64 10.00 L 59.57 10.00 L 58.51 10.00 L 57.45 10.00 L 56.38 10.00 L 55.32 10.00 L 54.26 10.00 L 53.19 10.00 L 52.13 10.00 L 51.06 10.00 L 50.00 10.00 L 48.94 10.00 L 47.87 10.00 L 46.81 10.00 L 45.74 10.00 L 44.68 10.00 L 43.62 10.00 L 42.55 10.00 L 41.49 10.00 L 40.43 10.00 L 39.36 10.00 L 38.30 10.00 L 37.23 10.00 L 36.17 10.00 L 35.11 10.00 L 34.04 10.00 L 32.98 10.00 L 31.91 10.00 L 30.85 10.00 L 29.79 10.00 L 28.72 10.00 L 27.66 10.00 L 26.60 10.00 L 25.53 10.00 L 24.47 10.00 L 23.40 10.00 L 22.34 10.00 L 21.28 10.00 L 20.21 10.00 L 19.15 10.00 L 18.09 10.00 L 17.02 10.00 L 16.49 11.11 L 16.49 13.33 L 16.49 15.56 L 16.49 17.78 L 16.49 20.00 L 16.49 22.22 L 16.49 24.44 L 16.49 26.67 L 16.49 28.89 L 16.49 31.11 L 16.49 33.33 L 16.49 35.56 L 16.49 37.78 L 16.49 40.00 L 16.49 42.22 L 16.49 44.44 L 16.49 46.67 L 16.49 48.89 L 16.49 51.11 L 16.49 53.33 L 16.49 55.56 L 16.49 57.78 L 16.49 60.00 L 16.49 62.22 L 16.49 64.44 L 16.49 66.67 L 16.49 68.89 L 16.49 71.11 L 16.49 73.33 L 16.49 75.56 L 16.49 77.78 L 16.49 80.00 L 16.49 82.22 L 16.49 84.44 L 16.49 86.67 L 16.49 88.89 L 16.49 91.11 L 16.49 93.33 L 16.49 95.56 L 16.49 97.78 Z"/>
<path d="M 98.94 10.00 L 97.87 10.00 L 96.81 10.00 L 95.74 10.00 L 94.68 10.00 L 93.62 10.00 L 92.55 10.00 L 91.49 10.00 L 90.43 10.00 L 89.36 10.00 L 88.30 10.00 L 87.23 10.00 L 86.17 10.00 L 85.11 10.00 L 84.04 10.00 L 82.98 10.00 L 82.45 11.11 L 82.45 13.33 L 82.45 15.56 L 82.45 17.78 L 82.45 20.00 L 82.45 22.22 L 82.45 24.44 L 82.45 26.67 L 82.45 28.89 L 82.45 31.11 L 82.45 33.33 L 82.45 35.56 L 82.45 37.78 L 82.45 40.00 L 82.45 42.22 L 82.45 44.44 L 82.45 46.67 L 82.45 48.89 L 82.45 51.11 L 82.45 53.33 L 82.45 55.56 L 82.45 57.78 L 82.45 60.00 L 82.45 62.22 L 82.45 64.44 L 82.45 66.67 L 82.45 68.89 L 82.45 71.11 L 82.45 73.33 L 82.45 75.56 L 82.45 77.78 L 82.45 80.00 L 82.45 82.22 L 82.45 84.44 L 82.45 86.67 L 82.45 88.89 L 82.45 91.11 L 82.45 93.33 L 82.45 95.56 L 82.45 97.78 Z"/>
<path d="M 60.64 85.56 L 59.57 85.56 L 58.51 85.56 L 57.45 85.56 L 56.38 85.56 L 55.32 85.56 L 54.79 84.44 L 54.79 82.22 L 54.79 80.00 L 54.79 77.78 L 54.26 76.67 L 53.19 76.67 L 52.13 76.67 L 51.06 76.67 L 50.00 76.67 L 49.47 75.56 L 49.47 73.33 L 49.47 71.11 L 49.47 68.89 L 49.47 66.67 L 49.47 64.44 L 49.47 62.22 L 49.47 60.00 L 50.00 58.89 L 50.53 57.78 L 51.06 56.67 L 51.60 55.56 L 52.13 54.44 L 52.66 53.33 L 53.19 52.22 L 53.72 51.11 L 54.26 50.00 L 54.79 48.89 L 54.79 46.67 L 55.32 45.56 L 55.85 44.44 L 55.85 42.22 L 55.85 40.00 L 55.32 38.89 L 54.26 38.89 L 53.19 38.89 L 52.66 40.00 L 52.13 41.11 L 51.60 42.22 L 51.06 43.33 L 50.53 44.44 L 50.00 45.56 L 49.47 46.67 L 48.94 47.78 L 48.40 48.89 L 47.87 50.00 L 46.81 50.00 L 46.28 48.89 L 45.74 47.78 L 44.68 47.78 L 44.15 46.67 L 43.62 45.56 L 43.09 44.44 L 43.09 42.22 L 42.55 41.11 L 41.49 41.11 L 40.43 41.11 L 39.36 41.11 L 38.83 42.22 L 38.83 44.44 L 38.83 46.67 L 39.36 47.78 L 39.89 48.89 L 40.43 50.00 L 40.96 51.11 L 41.49 52.22 L 42.02 53.33 L 42.55 54.44 L 43.09 55.56 L 43.62 56.67 L 44.15 57.78 L 44.68 58.89 L 45.21 60.00 L 45.21 62.22 L 45.21 64.44 L 45.21 66.67 L 45.21 68.89 L 45.21 71.11 L 45.21 73.33 L 45.21 75.56 L 45.21 77.78 L 45.21 80.00 L 45.21 82.22 L 45.74 83.33 L 46.28 84.44 L 45.74 85.56 L 44.68 85.56 L 43.62 85.56 L 42.55 85.56 L 41.49 85.56 L 40.43 85.56 L 39.36 85.56 L 38.30 85.56 L 37.23 85.56 L 36.17 85.56 L 35.64 84.44 L 35.64 82.22 L 35.64 80.00 L 35.64 77.78 L 35.64 75.56 L 35.64 73.33 L 35.64 71.11 L 35.64 68.89 L 35.64 66.67 L 35.64 64.44 L 35.64 62.22 L 35.64 60.00 L 35.64 57.78 L 35.64 55.56 L 35.64 53.33 L 35.64 51.11 L 35.64 48.89 L 35.64 46.67 L 35.64 44.44 L 35.64 42.22 L 35.64 40.00 L 35.64 37.78 L 35.64 35.56 L 35.64 33.33 L 36.17 32.22 L 37.23 32.22 L 38.30 32.22 L 39.36 32.22 L 40.43 32.22 L 41.49 32.22 L 42.55 32.22 L 43.62 32.22 L 44.68 32.22 L 45.74 32.22 L 46.81 32.22 L 47.87 32.22 L 48.94 32.22 L 50.00 32.22 L 51.06 32.22 L 52.13 32.22 L 53.19 32.22 L 54.26 32.22 L 55.32 32.22 L 56.38 32.22 L 57.45 32.22 L 58.51 32.22 L 59.57 32.22 L 60.64 32.22 L 61.17 33.33 L 61.17 35.56 L 61.17 37.78 L 61.17 40.00 L 61.17 42.22 L 61.17 44.44 L 61.17 46.67 L 61.17 48.89 L 61.17 51.11 L 61.17 53.33 L 61.17 55.56 L 61.17 57.78 L 61.17 60.00 L 61.17 62.22 L 61.17 64.44 L 61.17 66.67 L 61.17 68.89 L 61.17 71.11 L 61.17 73.33 L 61.17 75.56 L 61.17 77.78 L 61.17 80.00 L 61.17 82.22 L 61.17 84.44 L 60.64 85.56 Z"/>
</g></svg>