<?xml version="1.0" encoding="utf-8" ?>
<svg baseProfile="full" height="441" version="1.1" viewBox="0 0 335 441" width="335" xmlns="http://www.w3.org/2000/svg" xmlns:ev="http://www.w3.org/2001/xml-events" xmlns:xlink="http://www.w3.org/1999/xlink"><defs /><path d="M646 452V561H604V452C544 442 498 390 498 327C498 256 555 200 625 200C695 200 753 256 753 327C753 390 706 442 646 452ZM625 242C579 242 540 280 540 327C540 374 579 412 625 412C673 412 710 374 710 327C710 280 673 242 625 242Z" fill="black" transform="translate(-458,601) scale(1,-1)" /></svg>