<?xml version="1.0" encoding="utf-8" ?>
<svg baseProfile="full" height="378" version="1.1" viewBox="0 0 420 378" width="420" xmlns="http://www.w3.org/2000/svg" xmlns:ev="http://www.w3.org/2001/xml-events" xmlns:xlink="http://www.w3.org/1999/xlink"><defs /><path d="M625 529C601 529 583 510 583 486C583 463 601 444 625 444C649 444 668 463 668 486C668 510 649 529 625 529ZM498 316C474 316 455 298 455 274C455 250 474 231 498 231C521 231 540 250 540 274C540 298 521 316 498 316ZM753 316C729 316 710 298 710 274C710 250 729 231 753 231C776 231 795 250 795 274C795 298 776 316 753 316Z" fill="black" transform="translate(-415,569) scale(1,-1)" /></svg>