<svg xmlns="http://www.w3.org/2000/svg" viewBox="0 0 100 100">
<g fill="black" stroke="none">
<path d="M 0.00 85.58 L 1.06 85.58 L 2.13 85.58 L 3.19 85.58 L 4.26 85.58 L 5.32 85.58 L 6.38 85.58 L 7.45 85.58 L 8.51 85.58 L 9.57 85.58 L 10.64 85.58 L 11.70 85.58 L 12.77 85.58 L 13.83 85.58 L 14.36 84.62 L 14.36 82.69 L 14.36 80.77 L 14.36 78.85 L 14.36 76.92 L 14.36 75.00 L 14.36 73.08 L 14.36 71.15 L 14.36 69.23 L 14.36 67.31 L 14.36 65.38 L 14.36 63.46 L 14.36 61.54 L 14.36 59.62 L 14.36 57.69 L 14.36 55.77 L 14.36 53.85 L 14.36 51.92 L 14.36 50.00 L 14.36 48.08 L 14.36 46.15 L 14.36 44.23 L 14.36 42.31 L 14.36 40.38 L 14.36 38.46 L 14.36 36.54 L 14.36 34.62 L 14.36 32.69 L 14.36 30.77 L 14.36 28.85 L 14.36 26.92 L 14.36 25.00 L 14.36 23.08 L 14.36 21.15 L 14.36 19.23 L 14.36 17.31 L 14.36 15.38 L 14.36 13.46 L 14.36 11.54 L 14.36 9.62 L 14.36 7.69 L 14.36 5.77 L 14.36 3.85 L 14.36 1.92 L 13.83 0.96 L 12.77 0.96 L 11.70 0.96 L 10.64 0.96 L 9.57 0.96 L 8.51 0.96 L 7.45 0.96 L 6.38 0.96 L 5.32 0.96 L 4.26 0.96 L 3.19 0.96 L 2.13 0.96 L 1.06 0.96 L 0.00 0.96 Z"/>
<path d="M 81.38 84.62 L 81.38 82.69 L 81.38 80.77 L 81.38 78.85 L 81.38 76.92 L 81.38 75.00 L 81.38 73.08 L 81.38 71.15 L 81.38 69.23 L 81.38 67.31 L 81.38 65.38 L 81.38 63.46 L 81.38 61.54 L 81.38 59.62 L 81.38 57.69 L 81.38 55.77 L 81.38 53.85 L 81.38 51.92 L 81.38 50.00 L 81.38 48.08 L 81.38 46.15 L 81.38 44.23 L 81.38 42.31 L 81.38 40.38 L 81.38 38.46 L 81.38 36.54 L 81.38 34.62 L 81.38 32.69 L 81.38 30.77 L 81.38 28.85 L 81.38 26.92 L 81.38 25.00 L 81.38 23.08 L 81.38 21.15 L 81.38 19.23 L 81.38 17.31 L 81.38 15.38 L 81.38 13.46 L 81.38 11.54 L 81.38 9.62 L 81.38 7.69 L 81.38 5.77 L 81.38 3.85 L 81.38 1.92 L 80.85 0.96 L 79.79 0.96 L 78.72 0.96 L 77.66 0.96 L 76.60 0.96 L 75.53 0.96 L 74.47 0.96 L 73.40 0.96 L 72.34 0.96 L 71.28 0.96 L 70.21 0.96 L 69.15 0.96 L 68.09 0.96 L 67.02 0.96 L 65.96 0.96 L 64.89 0.96 L 63.83 0.96 L 62.77 0.96 L 61.70 0.96 L 60.64 0.96 L 59.57 0.96 L 58.51 0.96 L 57.45 0.96 L 56.38 0.96 L 55.32 0.96 L 54.26 0.96 L 53.19 0.96 L 52.13 0.96 L 51.06 0.96 L 50.00 0.96 L 48.94 0.96 L 47.87 0.96 L 46.81 0.96 L 45.74 0.96 L 44.68 0.96 L 43.62 0.96 L 42.55 0.96 L 41.49 0.96 L 40.43 0.96 L 39.36 0.96 L 38.30 0.96 L 37.23 0.96 L 36.17 0.96 L 35.11 0.96 L 34.04 0.96 L 32.98 0.96 L 31.91 0.96 L 30.85 0.96 L 29.79 0.96 L 28.72 0.96 L 27.66 0.96 L 26.60 0.96 L 25.53 0.96 L 24.47 0.96 L 23.40 0.96 L 22.34 0.96 L 21.28 0.96 L 20.21 0.96 L 19.15 0.96 L 18.09 0.96 L 17.02 0.96 L 16.49 1.92 L 16.49 3.85 L 16.49 5.77 L 16.49 7.69 L 16.49 9.62 L 16.49 11.54 L 16.49 13.46 L 16.49 15.38 L 16.49 17.31 L 16.49 19.23 L 16.49 21.15 L 16.49 23.08 L 16.49 25.00 L 16.49 26.92 L 16.49 28.85 L 16.49 30.77 L 16.49 32.69 L 16.49 34.62 L 16.49 36.54 L 16.49 38.46 L 16.49 40.38 L 16.49 42.31 L 16.49 44.23 L 16.49 46.15 L 16.49 48.08 L 16.49 50.00 L 16.49 51.92 L 16.49 53.85 L 16.49 55.77 L 16.49 57.69 L 16.49 59.62 L 16.49 61.54 L 16.49 63.46 L 16.49 65.38 L 16.49 67.31 L 16.49 69.23 L 16.49 71.15 L 16.49 73.08 L 16.49 75.00 L 16.49 76.92 L 16.49 78.85 L 16.49 80.77 L 16.49 82.69 L 16.49 84.62 L 17.02 85.58 L 18.09 85.58 L 19.15 85.58 L 20.21 85.58 L 21.28 85.58 L 22.34 85.58 L 23.40 85.58 L 24.47 85.58 L 25.53 85.58 L 26.60 85.58 L 27.66 85.58 L 28.72 85.58 L 29.79 85.58 L 30.85 85.58 L 31.91 85.58 L 32.98 85.58 L 34.04 85.58 L 35.11 85.58 L 36.17 85.58 L 37.23 85.58 L 38.30 85.58 L 39.36 85.58 L 40.43 85.58 L 41.49 85.58 L 42.55 85.58 L 43.62 85.58 L 44.68 85.58 L 45.74 85.58 L 46.81 85.58 L 47.87 85.58 L 48.94 85.58 L 50.00 85.58 L 51.06 85.58 L 52.13 85.58 L 53.19 85.58 L 54.26 85.58 L 55.32 85.58 L 56.38 85.58 L 57.45 85.58 L 58.51 85.58 L 59.57 85.58 L 60.64 85.58 L 61.70 85.58 L 62.77 85.58 L 63.83 85.58 L 64.89 85.58 L 65.96 85.58 L 67.02 85.58 L 68.09 85.58 L 69.15 85.58 L 70.21 85.58 L 71.28 85.58 L 72.34 85.58 L 73.40 85.58 L 74.47 85.58 L 75.53 85.58 L 76.60 85.58 L 77.66 85.58 L 78.72 85.58 L 79.79 85.58 L 80.85 85.58 L 81.38 84.62 Z"/>
<path d="M 98.94 0.96 L 97.87 0.96 L 96.81 0.96 L 95.74 0.96 L 94.68 0.96 L 93.62 0.96 L 92.55 0.96 L 91.49 0.96 L 90.43 0.96 L 89.36 0.96 L 88.30 0.96 L 87.23 0.96 L 86.17 0.96 L 85.11 0.96 L 84.04 0.96 L 82.98 0.96 L 82.45 1.92 L 82.45 3.85 L 82.45 5.77 L 82.45 7.69 L 82.45 9.62 L 82.45 11.54 L 82.45 13.46 L 82.45 15.38 L 82.45 17.31 L 82.45 19.23 L 82.45 21.15 L 82.45 23.08 L 82.45 25.00 L 82.45 26.92 L 82.45 28.85 L 82.45 30.77 L 82.45 32.69 L 82.45 34.62 L 82.45 36.54 L 82.45 38.46 L 82.45 40.38 L 82.45 42.31 L 82.45 44.23 L 82.45 46.15 L 82.45 48.08 L 82.45 50.00 L 82.45 51.92 L 82.45 53.85 L 82.45 55.77 L 82.45 57.69 L 82.45 59.62 L 82.45 61.54 L 82.45 63.46 L 82.45 65.38 L 82.45 67.31 L 82.45 69.23 L 82.45 71.15 L 82.45 73.08 L 82.45 75.00 L 82.45 76.92 L 82.45 78.85 L 82.45 80.77 L 82.45 82.69 L 82.45 84.62 L 82.98 85.58 L 84.04 85.58 L 85.11 85.58 L 86.17 85.58 L 87.23 85.58 L 88.30 85.58 L 89.36 85.58 L 90.43 85.58 L 91.49 85.58 L 92.55 85.58 L 93.62 85.58 L 94.68 85.58 L 95.74 85.58 L 96.81 85.58 L 97.87 85.58 L 98.94 85.58 Z"/>
<path d="M 62.77 68.27 L 61.70 68.27 L 60.64 68.27 L 59.57 68.27 L 58.51 68.27 L 57.45 68.27 L 56.38 68.27 L 55.32 68.27 L 54.26 68.27 L 53.19 68.27 L 52.13 68.27 L 51.06 68.27 L 50.00 68.27 L 48.94 68.27 L 47.87 68.27 L 46.81 68.27 L 45.74 68.27 L 44.68 68.27 L 43.62 68.27 L 42.55 68.27 L 41.49 68.27 L 40.43 68.27 L 39.36 68.27 L 38.30 68.27 L 37.23 68.27 L 36.17 68.27 L 35.11 68.27 L 34.57 67.31 L 34.57 65.38 L 35.11 64.42 L 35.64 63.46 L 35.64 61.54 L 35.64 59.62 L 35.64 57.69 L 35.64 55.77 L 35.64 53.85 L 35.64 51.92 L 35.64 50.00 L 35.64 48.08 L 35.64 46.15 L 35.64 44.23 L 35.64 42.31 L 35.64 40.38 L 35.64 38.46 L 35.64 36.54 L 35.64 34.62 L 35.64 32.69 L 35.64 30.77 L 35.64 28.85 L 35.64 26.92 L 35.64 25.00 L 35.64 23.08 L 36.17 22.12 L 37.23 22.12 L 38.30 22.12 L 39.36 22.12 L 40.43 22.12 L 41.49 22.12 L 42.55 22.12 L 43.62 22.12 L 44.68 22.12 L 45.74 22.12 L 46.81 22.12 L 47.87 22.12 L 48.94 22.12 L 50.00 22.12 L 51.06 22.12 L 52.13 22.12 L 53.19 22.12 L 54.26 22.12 L 55.32 22.12 L 56.38 22.12 L 57.45 22.12 L 58.51 22.12 L 59.57 22.12 L 60.64 22.12 L 61.70 22.12 L 62.23 23.08 L 62.23 25.00 L 62.23 26.92 L 62.23 28.85 L 62.23 30.77 L 62.23 32.69 L 62.23 34.62 L 62.23 36.54 L 62.23 38.46 L 62.23 40.38 L 62.23 42.31 L 62.23 44.23 L 62.23 46.15 L 62.23 48.08 L 62.23 50.00 L 62.23 51.92 L 62.23 53.85 L 62.23 55.77 L 62.23 57.69 L 62.23 59.62 L 62.23 61.54 L 62.23 63.46 L 62.77 64.42 L 63.30 65.38 L 63.30 67.31 L 62.77 68.27 Z"/>
<path d="M 98.94 89.42 L 97.87 89.42 L 96.81 89.42 L 95.74 89.42 L 94.68 89.42 L 93.62 89.42 L 92.55 89.42 L 91.49 89.42 L 90.43 89.42 L 89.36 89.42 L 88.30 89.42 L 87.23 89.42 L 86.17 89.42 L 85.11 89.42 L 84.04 89.42 L 82.98 89.42 L 81.91 89.42 L 80.85 89.42 L 79.79 89.42 L 78.72 89.42 L 77.66 89.42 L 76.60 89.42 L 75.53 89.42 L 74.47 89.42 L 73.40 89.42 L 72.34 89.42 L 71.28 89.42 L 70.21 89.42 L 69.15 89.42 L 68.09 89.42 L 67.02 89.42 L 65.96 89.42 L 64.89 89.42 L 63.83 89.42 L 62.77 89.42 L 61.70 89.42 L 60.64 89.42 L 59.57 89.42 L 58.51 89.42 L 57.45 89.42 L 56.38 89.42 L 55.32 89.42 L 54.26 89.42 L 53.19 89.42 L 52.13 89.42 L 51.06 89.42 L 50.00 89.42 L 48.94 89.42 L 47.87 89.42 L 46.81 89.42 L 45.74 89.42 L 44.68 89.42 L 43.62 89.42 L 42.55 89.42 L 41.49 89.42 L 40.43 89.42 L 39.36 89.42 L 38.30 89.42 L 37.23 89.42 L 36.17 89.42 L 35.11 89.42 L 34.04 89.42 L 32.98 89.42 L 31.91 89.42 L 30.85 89.42 L 29.79 89.42 L 28.72 89.42 L 27.66 89.42 L 26.60 89.42 L 25.53 89.42 L 24.47 89.42 L 23.40 89.42 L 22.34 89.42 L 21.28 89.42 L 20.21 89.42 L 19.15 89.42 L 18.09 89.42 L 17.02 89.42 L 15.96 89.42 L 14.89 89.42 L 13.83 89.42 L 12.77 89.42 L 11.70 89.42 L 10.64 89.42 L 9.57 89.42 L 8.51 89.42 L 7.45 89.42 L 6.38 89.42 L 5.32 89.42 L 4.26 89.42 L 3.19 89.42 L 2.13 89.42 L 1.06 89.42 L 0.00 89.42 Z"/>
</g></svg>